<svg xmlns="http://www.w3.org/2000/svg" width="60" height="60" viewBox="0 0 60 60">
    <g fill="none" fill-rule="evenodd" transform="translate(-132 -10)">
        <g>
            <path d="M0 0H60V60H0z" transform="translate(132 10)"/>
            <path fill="#212121" fill-rule="nonzero" d="M42.675 55C46.813 55 49 52.824 49 48.638V25.506c0-1.916-.306-2.79-1.458-3.973L32.61 6.466C31.458 5.331 30.564 5 28.754 5H17.325C13.21 5 11 7.2 11 11.386v37.252C11 52.824 13.163 55 17.325 55h25.35zm-.095-1.75H17.396c-3.057 0-4.656-1.609-4.656-4.683V11.433c0-2.956 1.6-4.683 4.68-4.683h11.71v14.9c0 2.366 1.176 3.383 3.363 3.383H47.26v23.534c0 3.074-1.6 4.683-4.68 4.683zm4.257-29.92H32.634c-1.294 0-1.811-.52-1.811-1.797V7.176L46.837 23.33z" transform="translate(132 10)"/>
            <path fill="#212121" fill-rule="nonzero" d="M35.734 44.733c.347-.363.355-.95 0-1.297l-4.932-4.94 4.932-4.932c.355-.346.355-.942 0-1.297-.363-.347-.95-.355-1.297-.008l-4.94 4.94-4.933-4.94c-.338-.339-.95-.355-1.297.008-.355.355-.347.959-.008 1.297l4.94 4.932-4.94 4.94c-.339.338-.355.942.008 1.297.355.355.959.347 1.297.008l4.932-4.94 4.94 4.94c.347.347.943.347 1.298-.008z" transform="translate(132 10)"/>
        </g>
    </g>
</svg>
